# xmcd CD database file
#
# Track frame offsets:
#	150
#	13951
#	27212
#	39614
#	52789
#	66135
#	80865
#	93670
#	105613
#	117474
#	130542
#	142681
#	156445
#	170817
#	183284
#	197104
#	209721
#	222055
#	234810
#	248443
#
# Disc length: 3472 seconds
#
# Revision: 0
# Processed by: cddbd v1.5.2PL0 Copyright (c) Steve Scherf et al.
# Submitted via: CDex 1.51
#
DISCID=160d8e14
DTITLE=T-Bone Walker - The Definitive Blues Collection - T-Bone Walker
DYEAR=1942
DGENRE=Blues
TTITLE0=Stormy Monday (But Tuesday's Just As Bad)
TTITLE1=I'm Gonna Find My Baby
TTITLE2=No Worry Blues
TTITLE3=My Baby Left Me Blues
TTITLE4=She's Going To Ruin Me Blues
TTITLE5=I Got A Break Baby
TTITLE6=Don't Leave Me Baby
TTITLE7=Lonesome Woman Blues
TTITLE8=That's Better For Me
TTITLE9=Mean Old World Blues
TTITLE10=Bobby Sox Baby
TTITLE11=T-Bone Boogie
TTITLE12=I Can't Stand Being Away From You
TTITLE13=West Side Baby
TTITLE14=Plain Old Down Home Blues
TTITLE15=Hypin' Woman Blues
TTITLE16=T-Bone Jumps Again
TTITLE17=Long Skirt Baby Blues
TTITLE18=I'm Waiting For Your Call
TTITLE19=Midnight Blues
EXTD=YEAR: 1942
EXTT0=
EXTT1=
EXTT2=
EXTT3=
EXTT4=
EXTT5=
EXTT6=
EXTT7=
EXTT8=
EXTT9=
EXTT10=
EXTT11=
EXTT12=
EXTT13=
EXTT14=
EXTT15=
EXTT16=
EXTT17=
EXTT18=
EXTT19=
PLAYORDER=
